<?xml version="1.0" standalone="no"?>
<!DOCTYPE svg PUBLIC "-//W3C//DTD SVG 20010904//EN"
 "http://www.w3.org/TR/2001/REC-SVG-20010904/DTD/svg10.dtd">
<svg version="1.0" xmlns="http://www.w3.org/2000/svg"
 width="353.000000pt" height="384.000000pt" viewBox="0 0 353.000000 384.000000"
 preserveAspectRatio="xMidYMid meet">

<g transform="translate(0.000000,384.000000) scale(0.100000,-0.100000)"
fill="#000000" stroke="none">
<path d="M69 3809 c-31 -11 -54 -58 -44 -88 3 -11 27 -46 53 -78 189 -232 295
-609 262 -930 -28 -275 -116 -510 -257 -688 -78 -98 -79 -114 -20 -187 97
-120 156 -227 205 -374 56 -165 67 -240 67 -454 0 -220 -8 -275 -66 -452 -53
-160 -102 -251 -201 -371 -62 -75 -64 -123 -7 -152 42 -22 2673 -22 2794 -1
249 45 473 247 586 528 63 158 88 437 58 655 -38 279 -181 528 -379 659 -22
15 -40 34 -40 43 0 9 23 31 50 50 27 18 78 63 113 100 129 137 208 291 247
483 33 161 25 458 -18 628 -11 42 -68 182 -95 230 -104 189 -290 339 -487 392
-58 15 -2780 22 -2821 7z m1521 -162 c150 -53 266 -235 326 -512 23 -104 27
-519 5 -605 -70 -285 -164 -442 -306 -510 l-63 -30 -636 0 c-580 0 -637 1
-643 16 -3 9 -1 25 6 36 25 41 91 176 111 231 12 31 22 58 23 59 1 2 279 5
617 8 l615 5 3 24 c8 51 12 51 -613 51 -320 0 -584 2 -587 5 -3 3 -1 26 3 53
5 26 16 101 24 167 9 66 18 126 20 133 3 9 138 12 625 12 409 0 628 4 641 10
21 12 25 40 7 58 -9 9 -164 12 -634 12 -521 0 -623 2 -633 14 -7 8 -18 67 -26
133 -8 65 -19 140 -25 167 -7 35 -7 53 0 60 7 8 207 13 603 16 559 5 592 6
595 23 9 48 20 47 -623 47 -470 0 -605 3 -613 13 -5 6 -24 48 -41 92 -18 44
-48 106 -67 138 -18 32 -34 65 -34 73 0 12 92 14 643 14 483 0 651 -3 677 -13z
m1044 -29 c12 -10 49 -35 83 -53 89 -51 198 -172 253 -282 42 -85 50 -107 73
-208 14 -61 14 -430 0 -500 -42 -211 -185 -411 -356 -499 -42 -21 -78 -45 -81
-52 -4 -12 -70 -14 -366 -14 -206 0 -360 4 -360 9 0 5 16 33 36 62 70 103 131
265 161 424 22 117 24 490 4 615 -16 102 -50 225 -85 307 -28 68 -91 179 -106
188 -33 20 17 25 303 28 371 3 414 1 441 -25z m-1009 -1805 c139 -78 241 -257
296 -523 21 -100 19 -493 -3 -590 -56 -246 -165 -429 -296 -497 l-44 -23 -653
0 c-360 0 -656 4 -659 8 -2 4 9 30 26 57 17 27 46 85 65 130 19 44 40 91 47
105 l12 25 608 5 c586 5 608 6 622 24 12 17 12 23 0 40 -13 21 -20 21 -596 24
-371 1 -588 6 -595 12 -9 7 -10 22 -3 53 5 23 15 98 24 167 11 89 20 129 31
137 12 9 164 12 631 13 443 0 618 3 628 11 16 13 19 45 5 53 -5 4 -288 6 -629
6 -474 0 -623 3 -636 13 -12 9 -19 38 -27 107 -5 52 -17 128 -25 169 -12 60
-12 76 -2 82 7 5 274 9 593 9 438 0 584 3 593 12 18 18 14 56 -7 68 -13 6
-223 10 -614 10 -553 0 -595 1 -609 18 -9 9 -19 28 -23 42 -4 14 -32 73 -62
132 -30 59 -52 112 -48 118 5 8 206 10 658 8 l652 -3 40 -22z m990 -3 c3 -5
32 -22 62 -37 113 -55 261 -220 309 -343 9 -25 20 -49 24 -55 4 -5 13 -35 20
-65 6 -30 16 -71 22 -90 10 -38 6 -396 -6 -445 -14 -59 -28 -110 -37 -130 -49
-116 -67 -149 -111 -207 -58 -77 -131 -142 -203 -183 -27 -15 -56 -35 -63 -44
-11 -14 -59 -16 -382 -19 -281 -2 -370 0 -370 9 0 7 11 26 24 43 65 85 143
286 173 441 21 113 24 500 4 615 -31 181 -94 353 -171 464 -16 25 -30 47 -30
50 0 11 728 7 735 -4z"/>
</g>
</svg>
